<?xml version="1.0" encoding="utf-8"?>
<!-- Generator: Adobe Illustrator 22.1.0, SVG Export Plug-In . SVG Version: 6.00 Build 0)  -->
<svg version="1.1" id="Layer_1" xmlns="http://www.w3.org/2000/svg" xmlns:xlink="http://www.w3.org/1999/xlink" x="0px" y="0px"
	 viewBox="0 0 32 32" style="enable-background:new 0 0 32 32;" xml:space="preserve">
<style type="text/css">
	.st0{fill:#DEAF99;}
	.st1{fill:#8C7065;}
	.st2{fill:#FFFFFF;}
</style>
<g>
	<path class="st0" d="M27.9,15.4h-9.6c-0.6,0-1.2-0.5-1.2-1.2s0.5-1.2,1.2-1.2h8.9v-2.2l-9.5-8.4c-0.6,0-1.1,0-1.7,0
		c-0.5,0-1,0-1.6,0l-9.7,8.6c-0.5,0.4-1.2,0.4-1.6-0.1c-0.4-0.5-0.4-1.2,0.1-1.6l10-8.9c0.2-0.2,0.6-0.3,0.9-0.3c0.7,0,1.3,0,1.9,0
		c0.6,0,1.3,0,2,0c0.3,0,0.6,0.1,0.9,0.3L29,9.3c0.3,0.3,0.5,0.7,0.5,1.2v3.3C29.5,14.7,28.8,15.4,27.9,15.4z"/>
	<g>
		<path class="st1" d="M9.3,14.3c0.4,0.8,1.1,0.8,1.7,1.6c0.4,0.7,0.4,1.4,0.3,1.8c-0.1,1.5,0.3,2.3,0.5,3.6c0,0.1,0,0.3,0,0.4
			l-1.1,8.5c0.3,0.1,0.5,0.1,0.6,0.1c0.4-0.1,1.7-1,1.9-0.9c0,0,0.1,0,0.1,0c0.1,0,0.3,0.1,0.4,0.1c0.5,0.4,1.2,0.5,1.9,0.3
			c0.1,0,0.3,0.1,0.4,0.1c0.4,0,0.7,0,1.1,0c0,0,0.1,0,0.1,0c0,0,3,0.2,3,0.2c0.1,0,0.2,0,0.3,0c0,0,0.4,0,0.5,0l3.1,0.2
			c0.4,0,0.8,0,0.8-0.1c0-0.1-0.6-0.2-1-0.6c-0.7-0.6-0.6-1.7-0.5-2.4c0.1-1,0.4-1.7,0.8-2.7c0.5-1.2,0.5-1,0.6-1.4
			c0.1-0.8-0.2-1-1.1-3.5c-0.2-0.5-0.3-1-0.6-1c-0.4,0-0.5,0.8-1.1,0.9c-0.5,0.1-0.9-0.5-1.1-0.4c-0.2,0.1,0.2,0.6,0.3,1.5
			c0.1,0.9-0.4,1.2-0.2,1.9c0.1,0.4,0.4,0.8,0.8,1c-0.1,0-1.3,0.1-2.4,0.8c0-0.1,0-0.2,0-0.3c-0.3-1.7-0.8-2.9-1-3.3
			c-0.2-0.3-0.3-0.6-0.5-0.8c-0.1-0.1-0.1-0.1-0.2-0.2c0,0,0,0,0,0c0,0,0,0,0-0.1c0,0,0,0-0.1-0.1c-0.1-0.1-0.2-0.2-0.3-0.4
			c-0.2-0.3-0.4-0.5-0.7-0.7c-0.3-0.3-0.5-0.6-0.8-0.9c-0.3-0.9-0.5-2-0.9-2.9c0.2-0.1,0.4-0.2,0.6-0.4c0.5-0.9-0.7-3.2-2.2-3.2
			c-0.6,0-1.5,0.4-1.9,1.1c-0.2,0.4-0.2,0.7-0.5,0.9c-0.5,0.3-1.1-0.3-1.5-0.1C9.1,12.9,9.1,13.7,9.3,14.3z M12.1,22.6
			C12.1,22.6,12.1,22.6,12.1,22.6C12.1,22.7,12.1,22.7,12.1,22.6C12.1,22.7,12.1,22.7,12.1,22.6z"/>
		<g>
			<path class="st1" d="M23.7,21.4c0.1-0.4,0.3-0.5,0.5-0.6c0.2,0,0.4,0,0.6,0.4c-0.1,0.4-0.3,0.5-0.5,0.6
				C24.2,21.8,24,21.8,23.7,21.4z"/>
		</g>
		<g>
			<path class="st1" d="M23.8,21.7c0.1-0.4,0.3-0.5,0.5-0.6c0.2,0,0.4,0,0.6,0.4c-0.1,0.4-0.3,0.5-0.5,0.6
				C24.2,22.1,24,22,23.8,21.7z"/>
		</g>
	</g>
	<path class="st0" d="M25.2,31.6h-21c-0.6,0-1.2-0.5-1.2-1.2V14.2c0-0.6,0.5-1.2,1.2-1.2h3.4c0.6,0,1.2,0.5,1.2,1.2
		s-0.5,1.2-1.2,1.2H5.3v13.9h19.9c1,0,1.8-0.8,1.8-1.8v-8.6c0-0.6,0.5-1.2,1.2-1.2c0.6,0,1.2,0.5,1.2,1.2v8.6
		C29.3,29.7,27.4,31.6,25.2,31.6z"/>
	<g>
		<g>
			<path class="st1" d="M23.5,4.5c0.3-0.8,0.8-1.7,2.1-1.7c1.3,0,2.4,0.8,2.4,2.6c0,1.8-2.7,3.6-4.5,5.5c-1.8-1.8-4.5-3.4-4.5-5.7
				c0-1.3,1-2.4,2.3-2.4C22.7,2.8,23.2,3.7,23.5,4.5L23.5,4.5z"/>
		</g>
		<path class="st2" d="M25,6.3h-0.6c-0.1,0-0.2-0.1-0.2-0.2V5.5c0-0.2-0.2-0.4-0.4-0.4h-0.7c-0.2,0-0.4,0.2-0.4,0.4v0.6
			c0,0.1-0.1,0.2-0.2,0.2h-0.6c-0.2,0-0.4,0.2-0.4,0.4v0.7c0,0.2,0.2,0.4,0.4,0.4h0.6c0.1,0,0.2,0.1,0.2,0.2v0.6
			c0,0.2,0.2,0.4,0.4,0.4h0.7c0.2,0,0.4-0.2,0.4-0.4V7.9c0-0.1,0.1-0.2,0.2-0.2H25c0.2,0,0.4-0.2,0.4-0.4V6.7
			C25.4,6.4,25.3,6.3,25,6.3z"/>
	</g>
</g>
</svg>
